<?xml version="1.0" encoding="utf-8" standalone="no"?>
<!DOCTYPE svg PUBLIC "-//W3C//DTD SVG 1.1//EN"
  "http://www.w3.org/Graphics/SVG/1.1/DTD/svg11.dtd">
<svg xmlns:xlink="http://www.w3.org/1999/xlink" width="643.442187pt" height="620.15pt" viewBox="0 0 643.442187 620.15" xmlns="http://www.w3.org/2000/svg" version="1.1">
 <metadata>
  <rdf:RDF xmlns:dc="http://purl.org/dc/elements/1.1/" xmlns:cc="http://creativecommons.org/ns#" xmlns:rdf="http://www.w3.org/1999/02/22-rdf-syntax-ns#">
   <cc:Work>
    <dc:type rdf:resource="http://purl.org/dc/dcmitype/StillImage"/>
    <dc:date>2022-04-08T05:02:19.258806</dc:date>
    <dc:format>image/svg+xml</dc:format>
    <dc:creator>
     <cc:Agent>
      <dc:title>Matplotlib v3.5.1, https://matplotlib.org/</dc:title>
     </cc:Agent>
    </dc:creator>
   </cc:Work>
  </rdf:RDF>
 </metadata>
 <defs>
  <style type="text/css">*{stroke-linejoin: round; stroke-linecap: butt}</style>
 </defs>
 <g id="figure_1">
  <g id="patch_1">
   <path d="M 0 620.15 
L 643.442187 620.15 
L 643.442187 0 
L 0 0 
L 0 620.15 
z
" style="fill: none"/>
  </g>
  <g id="axes_1">
   <g id="patch_2">
    <path d="M 71.879688 558.398438 
L 629.879688 558.398438 
L 629.879688 14.798438 
L 71.879688 14.798438 
z
" style="fill: #ffffff"/>
   </g>
   <g id="PathCollection_1">
    <defs>
     <path id="m6dabaaf2e0" d="M -3 3 
L 3 -3 
M -3 -3 
L 3 3 
" style="stroke: #0000ff; stroke-width: 1.5"/>
    </defs>
    <g clip-path="url(#p83a1bf0c55)">
     <use xlink:href="#m6dabaaf2e0" x="307.966409" y="328.114699" style="fill: #0000ff; stroke: #0000ff; stroke-width: 1.5"/>
     <use xlink:href="#m6dabaaf2e0" x="320.781275" y="268.910428" style="fill: #0000ff; stroke: #0000ff; stroke-width: 1.5"/>
     <use xlink:href="#m6dabaaf2e0" x="245.861035" y="359.3692" style="fill: #0000ff; stroke: #0000ff; stroke-width: 1.5"/>
     <use xlink:href="#m6dabaaf2e0" x="184.127577" y="383.916754" style="fill: #0000ff; stroke: #0000ff; stroke-width: 1.5"/>
     <use xlink:href="#m6dabaaf2e0" x="224.733713" y="385.206183" style="fill: #0000ff; stroke: #0000ff; stroke-width: 1.5"/>
     <use xlink:href="#m6dabaaf2e0" x="246.855018" y="335.624401" style="fill: #0000ff; stroke: #0000ff; stroke-width: 1.5"/>
     <use xlink:href="#m6dabaaf2e0" x="290.996688" y="320.157001" style="fill: #0000ff; stroke: #0000ff; stroke-width: 1.5"/>
     <use xlink:href="#m6dabaaf2e0" x="255.433983" y="348.468293" style="fill: #0000ff; stroke: #0000ff; stroke-width: 1.5"/>
     <use xlink:href="#m6dabaaf2e0" x="302.194713" y="376.631457" style="fill: #0000ff; stroke: #0000ff; stroke-width: 1.5"/>
     <use xlink:href="#m6dabaaf2e0" x="379.600982" y="444.298459" style="fill: #0000ff; stroke: #0000ff; stroke-width: 1.5"/>
     <use xlink:href="#m6dabaaf2e0" x="364.798312" y="428.37451" style="fill: #0000ff; stroke: #0000ff; stroke-width: 1.5"/>
     <use xlink:href="#m6dabaaf2e0" x="351.740703" y="377.267323" style="fill: #0000ff; stroke: #0000ff; stroke-width: 1.5"/>
     <use xlink:href="#m6dabaaf2e0" x="370.490909" y="367.672822" style="fill: #0000ff; stroke: #0000ff; stroke-width: 1.5"/>
     <use xlink:href="#m6dabaaf2e0" x="382.933776" y="319.860116" style="fill: #0000ff; stroke: #0000ff; stroke-width: 1.5"/>
     <use xlink:href="#m6dabaaf2e0" x="333.615525" y="290.346666" style="fill: #0000ff; stroke: #0000ff; stroke-width: 1.5"/>
     <use xlink:href="#m6dabaaf2e0" x="307.946921" y="312.118234" style="fill: #0000ff; stroke: #0000ff; stroke-width: 1.5"/>
     <use xlink:href="#m6dabaaf2e0" x="302.976798" y="320.166514" style="fill: #0000ff; stroke: #0000ff; stroke-width: 1.5"/>
     <use xlink:href="#m6dabaaf2e0" x="277.025395" y="289.995228" style="fill: #0000ff; stroke: #0000ff; stroke-width: 1.5"/>
     <use xlink:href="#m6dabaaf2e0" x="319.798921" y="264.245387" style="fill: #0000ff; stroke: #0000ff; stroke-width: 1.5"/>
     <use xlink:href="#m6dabaaf2e0" x="390.48759" y="294.037949" style="fill: #0000ff; stroke: #0000ff; stroke-width: 1.5"/>
     <use xlink:href="#m6dabaaf2e0" x="413.345012" y="285.599519" style="fill: #0000ff; stroke: #0000ff; stroke-width: 1.5"/>
     <use xlink:href="#m6dabaaf2e0" x="444.71267" y="233.441673" style="fill: #0000ff; stroke: #0000ff; stroke-width: 1.5"/>
     <use xlink:href="#m6dabaaf2e0" x="396.796578" y="211.209772" style="fill: #0000ff; stroke: #0000ff; stroke-width: 1.5"/>
     <use xlink:href="#m6dabaaf2e0" x="438.249933" y="229.818773" style="fill: #0000ff; stroke: #0000ff; stroke-width: 1.5"/>
     <use xlink:href="#m6dabaaf2e0" x="392.932638" y="233.181579" style="fill: #0000ff; stroke: #0000ff; stroke-width: 1.5"/>
     <use xlink:href="#m6dabaaf2e0" x="392.435469" y="191.314331" style="fill: #0000ff; stroke: #0000ff; stroke-width: 1.5"/>
     <use xlink:href="#m6dabaaf2e0" x="397.095846" y="244.623519" style="fill: #0000ff; stroke: #0000ff; stroke-width: 1.5"/>
     <use xlink:href="#m6dabaaf2e0" x="431.772404" y="275.083464" style="fill: #0000ff; stroke: #0000ff; stroke-width: 1.5"/>
     <use xlink:href="#m6dabaaf2e0" x="428.939653" y="229.055907" style="fill: #0000ff; stroke: #0000ff; stroke-width: 1.5"/>
     <use xlink:href="#m6dabaaf2e0" x="361.372651" y="220.704102" style="fill: #0000ff; stroke: #0000ff; stroke-width: 1.5"/>
     <use xlink:href="#m6dabaaf2e0" x="375.481438" y="264.9625" style="fill: #0000ff; stroke: #0000ff; stroke-width: 1.5"/>
     <use xlink:href="#m6dabaaf2e0" x="381.365046" y="238.501216" style="fill: #0000ff; stroke: #0000ff; stroke-width: 1.5"/>
     <use xlink:href="#m6dabaaf2e0" x="419.461005" y="260.891818" style="fill: #0000ff; stroke: #0000ff; stroke-width: 1.5"/>
     <use xlink:href="#m6dabaaf2e0" x="428.104365" y="255.577831" style="fill: #0000ff; stroke: #0000ff; stroke-width: 1.5"/>
     <use xlink:href="#m6dabaaf2e0" x="381.988676" y="277.749112" style="fill: #0000ff; stroke: #0000ff; stroke-width: 1.5"/>
     <use xlink:href="#m6dabaaf2e0" x="386.121596" y="293.981377" style="fill: #0000ff; stroke: #0000ff; stroke-width: 1.5"/>
     <use xlink:href="#m6dabaaf2e0" x="310.028738" y="234.67411" style="fill: #0000ff; stroke: #0000ff; stroke-width: 1.5"/>
     <use xlink:href="#m6dabaaf2e0" x="304.311527" y="180.855849" style="fill: #0000ff; stroke: #0000ff; stroke-width: 1.5"/>
     <use xlink:href="#m6dabaaf2e0" x="279.02845" y="221.687911" style="fill: #0000ff; stroke: #0000ff; stroke-width: 1.5"/>
     <use xlink:href="#m6dabaaf2e0" x="386.462131" y="310.013947" style="fill: #0000ff; stroke: #0000ff; stroke-width: 1.5"/>
     <use xlink:href="#m6dabaaf2e0" x="366.944546" y="313.492998" style="fill: #0000ff; stroke: #0000ff; stroke-width: 1.5"/>
     <use xlink:href="#m6dabaaf2e0" x="383.610426" y="360.199632" style="fill: #0000ff; stroke: #0000ff; stroke-width: 1.5"/>
     <use xlink:href="#m6dabaaf2e0" x="332.429557" y="310.025766" style="fill: #0000ff; stroke: #0000ff; stroke-width: 1.5"/>
     <use xlink:href="#m6dabaaf2e0" x="378.470744" y="309.389622" style="fill: #0000ff; stroke: #0000ff; stroke-width: 1.5"/>
     <use xlink:href="#m6dabaaf2e0" x="336.185635" y="372.571395" style="fill: #0000ff; stroke: #0000ff; stroke-width: 1.5"/>
     <use xlink:href="#m6dabaaf2e0" x="304.888253" y="265.166547" style="fill: #0000ff; stroke: #0000ff; stroke-width: 1.5"/>
     <use xlink:href="#m6dabaaf2e0" x="349.458921" y="313.077803" style="fill: #0000ff; stroke: #0000ff; stroke-width: 1.5"/>
     <use xlink:href="#m6dabaaf2e0" x="297.286846" y="344.064997" style="fill: #0000ff; stroke: #0000ff; stroke-width: 1.5"/>
     <use xlink:href="#m6dabaaf2e0" x="284.606939" y="350.259726" style="fill: #0000ff; stroke: #0000ff; stroke-width: 1.5"/>
     <use xlink:href="#m6dabaaf2e0" x="272.717984" y="242.819824" style="fill: #0000ff; stroke: #0000ff; stroke-width: 1.5"/>
    </g>
   </g>
   <g id="PathCollection_2">
    <defs>
     <path id="m8ac8c4d7c2" d="M 0 3 
C 0.795609 3 1.55874 2.683901 2.12132 2.12132 
C 2.683901 1.55874 3 0.795609 3 0 
C 3 -0.795609 2.683901 -1.55874 2.12132 -2.12132 
C 1.55874 -2.683901 0.795609 -3 0 -3 
C -0.795609 -3 -1.55874 -2.683901 -2.12132 -2.12132 
C -2.683901 -1.55874 -3 -0.795609 -3 0 
C -3 0.795609 -2.683901 1.55874 -2.12132 2.12132 
C -1.55874 2.683901 -0.795609 3 0 3 
z
" style="stroke: #ff0000"/>
    </defs>
    <g clip-path="url(#p83a1bf0c55)">
     <use xlink:href="#m8ac8c4d7c2" x="303.804893" y="307.920248" style="fill: #ff0000; stroke: #ff0000"/>
     <use xlink:href="#m8ac8c4d7c2" x="313.845754" y="290.574383" style="fill: #ff0000; stroke: #ff0000"/>
     <use xlink:href="#m8ac8c4d7c2" x="332.493125" y="280.114206" style="fill: #ff0000; stroke: #ff0000"/>
     <use xlink:href="#m8ac8c4d7c2" x="349.704444" y="275.866249" style="fill: #ff0000; stroke: #ff0000"/>
     <use xlink:href="#m8ac8c4d7c2" x="361.751937" y="268.610794" style="fill: #ff0000; stroke: #ff0000"/>
     <use xlink:href="#m8ac8c4d7c2" x="374.96751" y="271.614042" style="fill: #ff0000; stroke: #ff0000"/>
     <use xlink:href="#m8ac8c4d7c2" x="381.533456" y="273.131931" style="fill: #ff0000; stroke: #ff0000"/>
     <use xlink:href="#m8ac8c4d7c2" x="378.308434" y="266.815371" style="fill: #ff0000; stroke: #ff0000"/>
     <use xlink:href="#m8ac8c4d7c2" x="378.905126" y="252.261479" style="fill: #ff0000; stroke: #ff0000"/>
     <use xlink:href="#m8ac8c4d7c2" x="377.997201" y="248.709757" style="fill: #ff0000; stroke: #ff0000"/>
     <use xlink:href="#m8ac8c4d7c2" x="380.841944" y="241.780451" style="fill: #ff0000; stroke: #ff0000"/>
     <use xlink:href="#m8ac8c4d7c2" x="375.949726" y="244.6735" style="fill: #ff0000; stroke: #ff0000"/>
     <use xlink:href="#m8ac8c4d7c2" x="384.321024" y="249.049324" style="fill: #ff0000; stroke: #ff0000"/>
     <use xlink:href="#m8ac8c4d7c2" x="395.702637" y="258.052425" style="fill: #ff0000; stroke: #ff0000"/>
     <use xlink:href="#m8ac8c4d7c2" x="398.022716" y="261.334721" style="fill: #ff0000; stroke: #ff0000"/>
     <use xlink:href="#m8ac8c4d7c2" x="400.583981" y="267.340906" style="fill: #ff0000; stroke: #ff0000"/>
     <use xlink:href="#m8ac8c4d7c2" x="386.488891" y="267.748971" style="fill: #ff0000; stroke: #ff0000"/>
     <use xlink:href="#m8ac8c4d7c2" x="360.786629" y="262.596519" style="fill: #ff0000; stroke: #ff0000"/>
     <use xlink:href="#m8ac8c4d7c2" x="345.849905" y="258.656411" style="fill: #ff0000; stroke: #ff0000"/>
     <use xlink:href="#m8ac8c4d7c2" x="327.139499" y="261.166518" style="fill: #ff0000; stroke: #ff0000"/>
     <use xlink:href="#m8ac8c4d7c2" x="325.139203" y="272.007156" style="fill: #ff0000; stroke: #ff0000"/>
     <use xlink:href="#m8ac8c4d7c2" x="326.441686" y="297.249565" style="fill: #ff0000; stroke: #ff0000"/>
     <use xlink:href="#m8ac8c4d7c2" x="326.288072" y="334.483987" style="fill: #ff0000; stroke: #ff0000"/>
     <use xlink:href="#m8ac8c4d7c2" x="313.279539" y="376.602484" style="fill: #ff0000; stroke: #ff0000"/>
     <use xlink:href="#m8ac8c4d7c2" x="285.916052" y="397.458051" style="fill: #ff0000; stroke: #ff0000"/>
     <use xlink:href="#m8ac8c4d7c2" x="247.980418" y="395.710042" style="fill: #ff0000; stroke: #ff0000"/>
     <use xlink:href="#m8ac8c4d7c2" x="211.532339" y="409.258046" style="fill: #ff0000; stroke: #ff0000"/>
     <use xlink:href="#m8ac8c4d7c2" x="184.035485" y="424.65325" style="fill: #ff0000; stroke: #ff0000"/>
     <use xlink:href="#m8ac8c4d7c2" x="163.967493" y="450.016559" style="fill: #ff0000; stroke: #ff0000"/>
     <use xlink:href="#m8ac8c4d7c2" x="156.130813" y="474.76904" style="fill: #ff0000; stroke: #ff0000"/>
     <use xlink:href="#m8ac8c4d7c2" x="151.6285" y="499.292434" style="fill: #ff0000; stroke: #ff0000"/>
     <use xlink:href="#m8ac8c4d7c2" x="149.870514" y="506.225001" style="fill: #ff0000; stroke: #ff0000"/>
     <use xlink:href="#m8ac8c4d7c2" x="137.245929" y="508.351486" style="fill: #ff0000; stroke: #ff0000"/>
     <use xlink:href="#m8ac8c4d7c2" x="128.951949" y="504.612063" style="fill: #ff0000; stroke: #ff0000"/>
     <use xlink:href="#m8ac8c4d7c2" x="116.002072" y="491.750979" style="fill: #ff0000; stroke: #ff0000"/>
     <use xlink:href="#m8ac8c4d7c2" x="116.583155" y="479.831748" style="fill: #ff0000; stroke: #ff0000"/>
     <use xlink:href="#m8ac8c4d7c2" x="137.634377" y="468.436706" style="fill: #ff0000; stroke: #ff0000"/>
     <use xlink:href="#m8ac8c4d7c2" x="173.185815" y="454.362231" style="fill: #ff0000; stroke: #ff0000"/>
     <use xlink:href="#m8ac8c4d7c2" x="215.379857" y="441.830135" style="fill: #ff0000; stroke: #ff0000"/>
     <use xlink:href="#m8ac8c4d7c2" x="247.895191" y="414.154797" style="fill: #ff0000; stroke: #ff0000"/>
     <use xlink:href="#m8ac8c4d7c2" x="258.755283" y="372.853373" style="fill: #ff0000; stroke: #ff0000"/>
     <use xlink:href="#m8ac8c4d7c2" x="273.924198" y="319.992257" style="fill: #ff0000; stroke: #ff0000"/>
     <use xlink:href="#m8ac8c4d7c2" x="302.884057" y="283.431116" style="fill: #ff0000; stroke: #ff0000"/>
     <use xlink:href="#m8ac8c4d7c2" x="335.147127" y="265.127771" style="fill: #ff0000; stroke: #ff0000"/>
     <use xlink:href="#m8ac8c4d7c2" x="375.621184" y="261.515481" style="fill: #ff0000; stroke: #ff0000"/>
     <use xlink:href="#m8ac8c4d7c2" x="416.068615" y="250.191395" style="fill: #ff0000; stroke: #ff0000"/>
     <use xlink:href="#m8ac8c4d7c2" x="444.801608" y="227.071968" style="fill: #ff0000; stroke: #ff0000"/>
     <use xlink:href="#m8ac8c4d7c2" x="465.692377" y="196.072204" style="fill: #ff0000; stroke: #ff0000"/>
     <use xlink:href="#m8ac8c4d7c2" x="487.39867" y="157.762118" style="fill: #ff0000; stroke: #ff0000"/>
     <use xlink:href="#m8ac8c4d7c2" x="511.671707" y="129.519058" style="fill: #ff0000; stroke: #ff0000"/>
    </g>
   </g>
   <g id="matplotlib.axis_1">
    <g id="xtick_1">
     <g id="line2d_1">
      <defs>
       <path id="mc2858b8520" d="M 0 0 
L 0 3.5 
" style="stroke: #000000; stroke-width: 0.8"/>
      </defs>
      <g>
       <use xlink:href="#mc2858b8520" x="82.820864" y="558.398438" style="stroke: #000000; stroke-width: 0.8"/>
      </g>
     </g>
     <g id="text_1">
      <!-- −2 -->
      <g transform="translate(68.078676 580.595313)scale(0.2 -0.2)">
       <defs>
        <path id="DejaVuSans-2212" d="M 678 2272 
L 4684 2272 
L 4684 1741 
L 678 1741 
L 678 2272 
z
" transform="scale(0.015625)"/>
        <path id="DejaVuSans-32" d="M 1228 531 
L 3431 531 
L 3431 0 
L 469 0 
L 469 531 
Q 828 903 1448 1529 
Q 2069 2156 2228 2338 
Q 2531 2678 2651 2914 
Q 2772 3150 2772 3378 
Q 2772 3750 2511 3984 
Q 2250 4219 1831 4219 
Q 1534 4219 1204 4116 
Q 875 4013 500 3803 
L 500 4441 
Q 881 4594 1212 4672 
Q 1544 4750 1819 4750 
Q 2544 4750 2975 4387 
Q 3406 4025 3406 3419 
Q 3406 3131 3298 2873 
Q 3191 2616 2906 2266 
Q 2828 2175 2409 1742 
Q 1991 1309 1228 531 
z
" transform="scale(0.015625)"/>
       </defs>
       <use xlink:href="#DejaVuSans-2212"/>
       <use xlink:href="#DejaVuSans-32" x="83.789062"/>
      </g>
     </g>
    </g>
    <g id="xtick_2">
     <g id="line2d_2">
      <g>
       <use xlink:href="#mc2858b8520" x="192.232629" y="558.398438" style="stroke: #000000; stroke-width: 0.8"/>
      </g>
     </g>
     <g id="text_2">
      <!-- −1 -->
      <g transform="translate(177.490441 580.595313)scale(0.2 -0.2)">
       <defs>
        <path id="DejaVuSans-31" d="M 794 531 
L 1825 531 
L 1825 4091 
L 703 3866 
L 703 4441 
L 1819 4666 
L 2450 4666 
L 2450 531 
L 3481 531 
L 3481 0 
L 794 0 
L 794 531 
z
" transform="scale(0.015625)"/>
       </defs>
       <use xlink:href="#DejaVuSans-2212"/>
       <use xlink:href="#DejaVuSans-31" x="83.789062"/>
      </g>
     </g>
    </g>
    <g id="xtick_3">
     <g id="line2d_3">
      <g>
       <use xlink:href="#mc2858b8520" x="301.644393" y="558.398438" style="stroke: #000000; stroke-width: 0.8"/>
      </g>
     </g>
     <g id="text_3">
      <!-- 0 -->
      <g transform="translate(295.281893 580.595313)scale(0.2 -0.2)">
       <defs>
        <path id="DejaVuSans-30" d="M 2034 4250 
Q 1547 4250 1301 3770 
Q 1056 3291 1056 2328 
Q 1056 1369 1301 889 
Q 1547 409 2034 409 
Q 2525 409 2770 889 
Q 3016 1369 3016 2328 
Q 3016 3291 2770 3770 
Q 2525 4250 2034 4250 
z
M 2034 4750 
Q 2819 4750 3233 4129 
Q 3647 3509 3647 2328 
Q 3647 1150 3233 529 
Q 2819 -91 2034 -91 
Q 1250 -91 836 529 
Q 422 1150 422 2328 
Q 422 3509 836 4129 
Q 1250 4750 2034 4750 
z
" transform="scale(0.015625)"/>
       </defs>
       <use xlink:href="#DejaVuSans-30"/>
      </g>
     </g>
    </g>
    <g id="xtick_4">
     <g id="line2d_4">
      <g>
       <use xlink:href="#mc2858b8520" x="411.056158" y="558.398438" style="stroke: #000000; stroke-width: 0.8"/>
      </g>
     </g>
     <g id="text_4">
      <!-- 1 -->
      <g transform="translate(404.693658 580.595313)scale(0.2 -0.2)">
       <use xlink:href="#DejaVuSans-31"/>
      </g>
     </g>
    </g>
    <g id="xtick_5">
     <g id="line2d_5">
      <g>
       <use xlink:href="#mc2858b8520" x="520.467923" y="558.398438" style="stroke: #000000; stroke-width: 0.8"/>
      </g>
     </g>
     <g id="text_5">
      <!-- 2 -->
      <g transform="translate(514.105423 580.595313)scale(0.2 -0.2)">
       <use xlink:href="#DejaVuSans-32"/>
      </g>
     </g>
    </g>
    <g id="xtick_6">
     <g id="line2d_6">
      <g>
       <use xlink:href="#mc2858b8520" x="629.879688" y="558.398438" style="stroke: #000000; stroke-width: 0.8"/>
      </g>
     </g>
     <g id="text_6">
      <!-- 3 -->
      <g transform="translate(623.517188 580.595313)scale(0.2 -0.2)">
       <defs>
        <path id="DejaVuSans-33" d="M 2597 2516 
Q 3050 2419 3304 2112 
Q 3559 1806 3559 1356 
Q 3559 666 3084 287 
Q 2609 -91 1734 -91 
Q 1441 -91 1130 -33 
Q 819 25 488 141 
L 488 750 
Q 750 597 1062 519 
Q 1375 441 1716 441 
Q 2309 441 2620 675 
Q 2931 909 2931 1356 
Q 2931 1769 2642 2001 
Q 2353 2234 1838 2234 
L 1294 2234 
L 1294 2753 
L 1863 2753 
Q 2328 2753 2575 2939 
Q 2822 3125 2822 3475 
Q 2822 3834 2567 4026 
Q 2313 4219 1838 4219 
Q 1578 4219 1281 4162 
Q 984 4106 628 3988 
L 628 4550 
Q 988 4650 1302 4700 
Q 1616 4750 1894 4750 
Q 2613 4750 3031 4423 
Q 3450 4097 3450 3541 
Q 3450 3153 3228 2886 
Q 3006 2619 2597 2516 
z
" transform="scale(0.015625)"/>
       </defs>
       <use xlink:href="#DejaVuSans-33"/>
      </g>
     </g>
    </g>
    <g id="text_7">
     <!-- x -->
     <g transform="translate(343.48125 607.750781)scale(0.25 -0.25)">
      <defs>
       <path id="DejaVuSans-78" d="M 3513 3500 
L 2247 1797 
L 3578 0 
L 2900 0 
L 1881 1375 
L 863 0 
L 184 0 
L 1544 1831 
L 300 3500 
L 978 3500 
L 1906 2253 
L 2834 3500 
L 3513 3500 
z
" transform="scale(0.015625)"/>
      </defs>
      <use xlink:href="#DejaVuSans-78"/>
     </g>
    </g>
   </g>
   <g id="matplotlib.axis_2">
    <g id="ytick_1">
     <g id="line2d_7">
      <defs>
       <path id="mbd333ab49f" d="M 0 0 
L -3.5 0 
" style="stroke: #000000; stroke-width: 0.8"/>
      </defs>
      <g>
       <use xlink:href="#mbd333ab49f" x="71.879688" y="547.739614" style="stroke: #000000; stroke-width: 0.8"/>
      </g>
     </g>
     <g id="text_8">
      <!-- −2 -->
      <g transform="translate(35.395313 555.338051)scale(0.2 -0.2)">
       <use xlink:href="#DejaVuSans-2212"/>
       <use xlink:href="#DejaVuSans-32" x="83.789062"/>
      </g>
     </g>
    </g>
    <g id="ytick_2">
     <g id="line2d_8">
      <g>
       <use xlink:href="#mbd333ab49f" x="71.879688" y="441.151379" style="stroke: #000000; stroke-width: 0.8"/>
      </g>
     </g>
     <g id="text_9">
      <!-- −1 -->
      <g transform="translate(35.395313 448.749816)scale(0.2 -0.2)">
       <use xlink:href="#DejaVuSans-2212"/>
       <use xlink:href="#DejaVuSans-31" x="83.789062"/>
      </g>
     </g>
    </g>
    <g id="ytick_3">
     <g id="line2d_9">
      <g>
       <use xlink:href="#mbd333ab49f" x="71.879688" y="334.563143" style="stroke: #000000; stroke-width: 0.8"/>
      </g>
     </g>
     <g id="text_10">
      <!-- 0 -->
      <g transform="translate(52.154688 342.161581)scale(0.2 -0.2)">
       <use xlink:href="#DejaVuSans-30"/>
      </g>
     </g>
    </g>
    <g id="ytick_4">
     <g id="line2d_10">
      <g>
       <use xlink:href="#mbd333ab49f" x="71.879688" y="227.974908" style="stroke: #000000; stroke-width: 0.8"/>
      </g>
     </g>
     <g id="text_11">
      <!-- 1 -->
      <g transform="translate(52.154688 235.573346)scale(0.2 -0.2)">
       <use xlink:href="#DejaVuSans-31"/>
      </g>
     </g>
    </g>
    <g id="ytick_5">
     <g id="line2d_11">
      <g>
       <use xlink:href="#mbd333ab49f" x="71.879688" y="121.386673" style="stroke: #000000; stroke-width: 0.8"/>
      </g>
     </g>
     <g id="text_12">
      <!-- 2 -->
      <g transform="translate(52.154688 128.98511)scale(0.2 -0.2)">
       <use xlink:href="#DejaVuSans-32"/>
      </g>
     </g>
    </g>
    <g id="ytick_6">
     <g id="line2d_12">
      <g>
       <use xlink:href="#mbd333ab49f" x="71.879688" y="14.798437" style="stroke: #000000; stroke-width: 0.8"/>
      </g>
     </g>
     <g id="text_13">
      <!-- 3 -->
      <g transform="translate(52.154688 22.396875)scale(0.2 -0.2)">
       <use xlink:href="#DejaVuSans-33"/>
      </g>
     </g>
    </g>
    <g id="text_14">
     <!-- y -->
     <g transform="translate(26.196094 293.996875)rotate(-90)scale(0.25 -0.25)">
      <defs>
       <path id="DejaVuSans-79" d="M 2059 -325 
Q 1816 -950 1584 -1140 
Q 1353 -1331 966 -1331 
L 506 -1331 
L 506 -850 
L 844 -850 
Q 1081 -850 1212 -737 
Q 1344 -625 1503 -206 
L 1606 56 
L 191 3500 
L 800 3500 
L 1894 763 
L 2988 3500 
L 3597 3500 
L 2059 -325 
z
" transform="scale(0.015625)"/>
      </defs>
      <use xlink:href="#DejaVuSans-79"/>
     </g>
    </g>
   </g>
   <g id="PathCollection_3"/>
   <g id="PathCollection_4">
    <path d="M 91.752437 543.613363 
L 100.684009 546.783346 
L 109.615582 546.893255 
L 118.547154 545.496837 
L 127.478727 543.14432 
L 136.4103 539.984061 
L 138.518925 539.038534 
L 145.341872 536.3568 
L 154.273445 532.204228 
L 157.713683 530.337453 
L 163.205018 527.701512 
L 172.13659 522.763592 
L 173.958637 521.636373 
L 181.068163 517.708701 
L 188.58295 512.935292 
L 189.999736 512.125893 
L 198.931308 506.546358 
L 202.251496 504.234212 
L 207.862881 500.685821 
L 215.099376 495.533131 
L 216.794453 494.429313 
L 225.726026 488.11837 
L 227.414857 486.832051 
L 234.657599 481.737734 
L 239.302895 478.130971 
L 243.589171 475.035746 
L 250.672301 469.42989 
L 252.520744 468.059581 
L 261.452317 460.884255 
L 261.639416 460.72881 
L 270.383889 453.856651 
L 272.548434 452.027729 
L 279.315462 446.58066 
L 283.102354 443.326649 
L 288.247034 439.085198 
L 293.350536 434.625568 
L 297.178607 431.393246 
L 303.332858 425.924488 
L 306.11018 423.522732 
L 313.081372 417.223407 
L 315.041752 415.487198 
L 322.621603 408.522327 
L 323.973325 407.296297 
L 331.973551 399.821247 
L 332.904898 398.956135 
L 341.152463 391.120166 
L 341.83647 390.46949 
L 350.16941 382.419086 
L 350.768043 381.835902 
L 359.031703 373.718005 
L 359.699615 373.05165 
L 367.74316 365.016925 
L 368.631188 364.109613 
L 376.304253 356.315844 
L 377.562761 354.999006 
L 384.712132 347.614764 
L 386.494333 345.704974 
L 392.960527 338.913684 
L 395.425906 336.208034 
L 401.039532 330.212603 
L 404.357479 326.483321 
L 408.935244 321.511523 
L 413.289051 316.499608 
L 416.629261 312.810442 
L 422.220624 306.218047 
L 424.097994 304.109362 
L 431.152197 295.590552 
L 431.31176 295.408281 
L 438.67716 286.707201 
L 440.083769 284.90646 
L 445.838125 278.006121 
L 449.015342 273.830458 
L 452.717648 269.30504 
L 457.946914 262.249208 
L 459.267308 260.60396 
L 465.745428 251.902879 
L 466.878487 250.251546 
L 472.167672 243.201799 
L 475.81006 237.735224 
L 478.183455 234.500718 
L 483.910792 225.799638 
L 484.741632 224.419415 
L 489.641489 217.098558 
L 493.673205 210.172503 
L 494.830285 208.397477 
L 499.89901 199.696397 
L 502.604778 194.346774 
L 504.521004 190.995316 
L 508.783578 182.294236 
L 511.53635 175.647365 
L 512.506925 173.593155 
L 515.750899 164.892075 
L 518.165734 156.190995 
L 519.599143 147.489914 
L 519.486323 138.788834 
L 516.232367 130.087753 
L 511.53635 125.512923 
L 502.604778 122.342941 
L 493.673205 122.233032 
L 484.741632 123.62945 
L 475.81006 125.981967 
L 466.878487 129.142226 
L 464.769862 130.087753 
L 457.946914 132.769486 
L 449.015342 136.922059 
L 445.575104 138.788834 
L 440.083769 141.424775 
L 431.152197 146.362695 
L 429.33015 147.489914 
L 422.220624 151.417586 
L 414.705837 156.190995 
L 413.289051 157.000394 
L 404.357479 162.579929 
L 401.037291 164.892075 
L 395.425906 168.440466 
L 388.189411 173.593155 
L 386.494333 174.696974 
L 377.562761 181.007917 
L 375.873929 182.294236 
L 368.631188 187.388553 
L 363.985892 190.995316 
L 359.699615 194.090541 
L 352.616485 199.696397 
L 350.768043 201.066706 
L 341.83647 208.242032 
L 341.649371 208.397477 
L 332.904898 215.269636 
L 330.740353 217.098558 
L 323.973325 222.545627 
L 320.186433 225.799638 
L 315.041752 230.041089 
L 309.938251 234.500718 
L 306.11018 237.733041 
L 299.955929 243.201799 
L 297.178607 245.603555 
L 290.207415 251.902879 
L 288.247034 253.639089 
L 280.667184 260.60396 
L 279.315462 261.82999 
L 271.315236 269.30504 
L 270.383889 270.170152 
L 262.136324 278.006121 
L 261.452317 278.656796 
L 253.119376 286.707201 
L 252.520744 287.290385 
L 244.257084 295.408281 
L 243.589171 296.074637 
L 235.545627 304.109362 
L 234.657599 305.016674 
L 226.984534 312.810442 
L 225.726026 314.127281 
L 218.576655 321.511523 
L 216.794453 323.421312 
L 210.328259 330.212603 
L 207.862881 332.918252 
L 202.249255 338.913684 
L 198.931308 342.642966 
L 194.353543 347.614764 
L 189.999736 352.626679 
L 186.659525 356.315844 
L 181.068163 362.908239 
L 179.190793 365.016925 
L 172.13659 373.535734 
L 171.977027 373.718005 
L 164.611627 382.419086 
L 163.205018 384.219827 
L 157.450662 391.120166 
L 154.273445 395.295829 
L 150.571138 399.821247 
L 145.341872 406.877079 
L 144.021478 408.522327 
L 137.543358 417.223407 
L 136.4103 418.874741 
L 131.121115 425.924488 
L 127.478727 431.391063 
L 125.105332 434.625568 
L 119.377995 443.326649 
L 118.547154 444.706872 
L 113.647298 452.027729 
L 109.615582 458.953784 
L 108.458502 460.72881 
L 103.389777 469.42989 
L 100.684009 474.779513 
L 98.767783 478.130971 
L 94.505209 486.832051 
L 91.752437 493.478922 
L 90.781862 495.533131 
L 87.537888 504.234212 
L 85.123053 512.935292 
L 83.689643 521.636373 
L 83.802464 530.337453 
L 87.056419 539.038534 
L 91.752437 543.613363 
z
" clip-path="url(#p83a1bf0c55)" style="fill: none; stroke: #472d7b; stroke-width: 1.5"/>
   </g>
   <g id="PathCollection_5">
    <path d="M 136.4103 505.19178 
L 145.341872 505.972612 
L 154.273445 504.693829 
L 155.746931 504.234212 
L 163.205018 502.13941 
L 172.13659 498.813353 
L 179.282006 495.533131 
L 181.068163 494.788951 
L 189.999736 490.363267 
L 196.199914 486.832051 
L 198.931308 485.408143 
L 207.862881 480.171977 
L 210.978797 478.130971 
L 216.794453 474.612803 
L 224.470351 469.42989 
L 225.726026 468.641202 
L 234.657599 462.561173 
L 237.129375 460.72881 
L 243.589171 456.23303 
L 249.120611 452.027729 
L 252.520744 449.583454 
L 260.546515 443.326649 
L 261.452317 442.654126 
L 270.383889 435.638745 
L 271.60516 434.625568 
L 279.315462 428.476173 
L 282.3257 425.924488 
L 288.247034 421.064488 
L 292.682057 417.223407 
L 297.178607 413.425612 
L 302.719965 408.522327 
L 306.11018 405.575885 
L 312.475916 399.821247 
L 315.041752 397.526657 
L 321.978626 391.120166 
L 323.973325 389.28469 
L 331.250178 382.419086 
L 332.904898 380.852391 
L 340.30687 373.718005 
L 341.83647 372.227878 
L 349.159846 365.016925 
L 350.768043 363.404907 
L 357.815518 356.315844 
L 359.699615 354.372622 
L 366.275814 347.614764 
L 368.631188 345.115143 
L 374.538267 338.913684 
L 377.562761 335.610959 
L 382.595934 330.212603 
L 386.494333 325.832093 
L 390.437164 321.511523 
L 395.425906 315.742997 
L 398.045185 312.810442 
L 404.357479 305.299116 
L 405.397494 304.109362 
L 412.598713 295.408281 
L 413.289051 294.525856 
L 419.7116 286.707201 
L 422.220624 283.394813 
L 426.537323 278.006121 
L 431.152197 271.713029 
L 433.0331 269.30504 
L 439.274189 260.60396 
L 440.083769 259.38069 
L 445.403978 251.902879 
L 449.015342 246.237305 
L 451.110415 243.201799 
L 456.485287 234.500718 
L 457.946914 231.839811 
L 461.571672 225.799638 
L 466.114593 217.098558 
L 466.878487 215.358495 
L 470.245601 208.397477 
L 473.659767 199.696397 
L 475.81006 192.430777 
L 476.281853 190.995316 
L 477.59451 182.294236 
L 476.792994 173.593155 
L 475.81006 171.452341 
L 469.076012 164.892075 
L 466.878487 163.934507 
L 457.946914 163.153675 
L 449.015342 164.432457 
L 447.541856 164.892075 
L 440.083769 166.986876 
L 431.152197 170.312934 
L 424.00678 173.593155 
L 422.220624 174.337336 
L 413.289051 178.76302 
L 407.088873 182.294236 
L 404.357479 183.718144 
L 395.425906 188.954309 
L 392.309989 190.995316 
L 386.494333 194.513483 
L 378.818435 199.696397 
L 377.562761 200.485085 
L 368.631188 206.565114 
L 366.159411 208.397477 
L 359.699615 212.893257 
L 354.168176 217.098558 
L 350.768043 219.542832 
L 342.742271 225.799638 
L 341.83647 226.472161 
L 332.904898 233.487542 
L 331.683627 234.500718 
L 323.973325 240.650114 
L 320.963086 243.201799 
L 315.041752 248.061799 
L 310.60673 251.902879 
L 306.11018 255.700675 
L 300.568821 260.60396 
L 297.178607 263.550402 
L 290.812871 269.30504 
L 288.247034 271.59963 
L 281.310161 278.006121 
L 279.315462 279.841597 
L 272.038609 286.707201 
L 270.383889 288.273896 
L 262.981917 295.408281 
L 261.452317 296.898408 
L 254.128941 304.109362 
L 252.520744 305.721379 
L 245.473269 312.810442 
L 243.589171 314.753665 
L 237.012973 321.511523 
L 234.657599 324.011144 
L 228.75052 330.212603 
L 225.726026 333.515328 
L 220.692853 338.913684 
L 216.794453 343.294194 
L 212.851622 347.614764 
L 207.862881 353.383289 
L 205.243601 356.315844 
L 198.931308 363.827171 
L 197.891293 365.016925 
L 190.690073 373.718005 
L 189.999736 374.600431 
L 183.577187 382.419086 
L 181.068163 385.731474 
L 176.751464 391.120166 
L 172.13659 397.413258 
L 170.255687 399.821247 
L 164.014598 408.522327 
L 163.205018 409.745597 
L 157.884809 417.223407 
L 154.273445 422.888982 
L 152.178372 425.924488 
L 146.8035 434.625568 
L 145.341872 437.286475 
L 141.717115 443.326649 
L 137.174194 452.027729 
L 136.4103 453.767791 
L 133.043185 460.72881 
L 129.62902 469.42989 
L 127.478727 476.69551 
L 127.006934 478.130971 
L 125.694277 486.832051 
L 126.495793 495.533131 
L 127.478727 497.673946 
L 134.212775 504.234212 
L 136.4103 505.19178 
z
" clip-path="url(#p83a1bf0c55)" style="fill: none; stroke: #3b528b; stroke-width: 1.5"/>
   </g>
   <g id="PathCollection_6">
    <path d="M 163.205018 475.185484 
L 172.13659 476.546025 
L 181.068163 475.07851 
L 189.999736 472.315735 
L 196.876424 469.42989 
L 198.931308 468.629956 
L 207.862881 464.284838 
L 214.227192 460.72881 
L 216.794453 459.38825 
L 225.726026 454.100516 
L 228.862154 452.027729 
L 234.657599 448.418449 
L 242.086975 443.326649 
L 243.589171 442.349466 
L 252.520744 436.047454 
L 254.389603 434.625568 
L 261.452317 429.48084 
L 265.991079 425.924488 
L 270.383889 422.605175 
L 277.05403 417.223407 
L 279.315462 415.451053 
L 287.655907 408.522327 
L 288.247034 408.04186 
L 297.178607 400.45776 
L 297.899659 399.821247 
L 306.11018 392.666221 
L 307.818883 391.120166 
L 315.041752 384.621977 
L 317.417121 382.419086 
L 323.973325 376.32982 
L 326.721133 373.718005 
L 332.904898 367.788914 
L 335.750317 365.016925 
L 341.83647 358.992741 
L 344.517472 356.315844 
L 350.768043 349.928833 
L 353.029289 347.614764 
L 359.699615 340.578291 
L 361.286626 338.913684 
L 368.631188 330.915048 
L 369.284562 330.212603 
L 377.069566 321.511523 
L 377.562761 320.93565 
L 384.67503 312.810442 
L 386.494333 310.60737 
L 392.018664 304.109362 
L 395.425906 299.829914 
L 399.076466 295.408281 
L 404.357479 288.527831 
L 405.81703 286.707201 
L 412.285983 278.006121 
L 413.289051 276.54269 
L 418.515734 269.30504 
L 422.220624 263.659155 
L 424.348319 260.60396 
L 429.776125 251.902879 
L 431.152197 249.40187 
L 434.802424 243.201799 
L 439.262644 234.500718 
L 440.083769 232.498863 
L 443.04606 225.799638 
L 445.882022 217.098558 
L 447.388411 208.397477 
L 445.991829 199.696397 
L 440.083769 193.940802 
L 431.152197 192.580262 
L 422.220624 194.047776 
L 413.289051 196.810552 
L 406.412363 199.696397 
L 404.357479 200.496331 
L 395.425906 204.841449 
L 389.061594 208.397477 
L 386.494333 209.738037 
L 377.562761 215.02577 
L 374.426633 217.098558 
L 368.631188 220.707838 
L 361.201812 225.799638 
L 359.699615 226.776821 
L 350.768043 233.078832 
L 348.899184 234.500718 
L 341.83647 239.645447 
L 337.297708 243.201799 
L 332.904898 246.521112 
L 326.234757 251.902879 
L 323.973325 253.675233 
L 315.63288 260.60396 
L 315.041752 261.084427 
L 306.11018 268.668527 
L 305.389127 269.30504 
L 297.178607 276.460065 
L 295.469904 278.006121 
L 288.247034 284.50431 
L 285.871665 286.707201 
L 279.315462 292.796467 
L 276.567654 295.408281 
L 270.383889 301.337372 
L 267.538469 304.109362 
L 261.452317 310.133546 
L 258.771315 312.810442 
L 252.520744 319.197454 
L 250.259498 321.511523 
L 243.589171 328.547996 
L 242.002161 330.212603 
L 234.657599 338.211239 
L 234.004224 338.913684 
L 226.21922 347.614764 
L 225.726026 348.190636 
L 218.613757 356.315844 
L 216.794453 358.518917 
L 211.270122 365.016925 
L 207.862881 369.296372 
L 204.212321 373.718005 
L 198.931308 380.598456 
L 197.471756 382.419086 
L 191.002804 391.120166 
L 189.999736 392.583597 
L 184.773053 399.821247 
L 181.068163 405.467132 
L 178.940467 408.522327 
L 173.512662 417.223407 
L 172.13659 419.724417 
L 168.486362 425.924488 
L 164.026143 434.625568 
L 163.205018 436.627423 
L 160.242727 443.326649 
L 157.406765 452.027729 
L 155.900376 460.72881 
L 157.296957 469.42989 
L 163.205018 475.185484 
z
" clip-path="url(#p83a1bf0c55)" style="fill: none; stroke: #2c728e; stroke-width: 1.5"/>
   </g>
   <g id="PathCollection_7">
    <path d="M 189.999736 450.997258 
L 198.931308 450.88327 
L 207.862881 448.451502 
L 216.794453 444.966055 
L 219.999185 443.326649 
L 225.726026 440.547246 
L 234.657599 435.59099 
L 236.161015 434.625568 
L 243.589171 430.068196 
L 249.756684 425.924488 
L 252.520744 424.137045 
L 261.452317 417.846293 
L 262.268773 417.223407 
L 270.383889 411.217289 
L 273.793866 408.522327 
L 279.315462 404.257879 
L 284.735471 399.821247 
L 288.247034 396.991625 
L 295.173339 391.120166 
L 297.178607 389.434493 
L 305.1708 382.419086 
L 306.11018 381.595381 
L 314.777573 373.718005 
L 315.041752 373.476388 
L 323.973325 365.07433 
L 324.033108 365.016925 
L 332.904898 356.374084 
L 332.963823 356.315844 
L 341.588452 347.614764 
L 341.83647 347.357402 
L 349.922518 338.913684 
L 350.768043 337.998546 
L 357.969289 330.212603 
L 359.699615 328.259083 
L 365.72661 321.511523 
L 368.631188 318.09058 
L 373.185347 312.810442 
L 377.562761 307.431339 
L 380.329113 304.109362 
L 386.494333 296.203668 
L 387.133719 295.408281 
L 393.591114 286.707201 
L 395.425906 284.014472 
L 399.679381 278.006121 
L 404.357479 270.769659 
L 405.348474 269.30504 
L 410.436021 260.60396 
L 413.289051 255.024908 
L 414.971886 251.902879 
L 418.549662 243.201799 
L 421.045847 234.500718 
L 421.162855 225.799638 
L 413.289051 218.129029 
L 404.357479 218.243017 
L 395.425906 220.674785 
L 386.494333 224.160232 
L 383.289602 225.799638 
L 377.562761 228.579041 
L 368.631188 233.535297 
L 367.127771 234.500718 
L 359.699615 239.058091 
L 353.532103 243.201799 
L 350.768043 244.989242 
L 341.83647 251.279994 
L 341.020013 251.902879 
L 332.904898 257.908998 
L 329.494921 260.60396 
L 323.973325 264.868408 
L 318.553316 269.30504 
L 315.041752 272.134661 
L 308.115448 278.006121 
L 306.11018 279.691794 
L 298.117987 286.707201 
L 297.178607 287.530905 
L 288.511214 295.408281 
L 288.247034 295.649899 
L 279.315462 304.051957 
L 279.255679 304.109362 
L 270.383889 312.752202 
L 270.324963 312.810442 
L 261.700334 321.511523 
L 261.452317 321.768885 
L 253.366268 330.212603 
L 252.520744 331.127741 
L 245.319498 338.913684 
L 243.589171 340.867203 
L 237.562177 347.614764 
L 234.657599 351.035707 
L 230.10344 356.315844 
L 225.726026 361.694948 
L 222.959674 365.016925 
L 216.794453 372.922618 
L 216.155067 373.718005 
L 209.697673 382.419086 
L 207.862881 385.111815 
L 203.609406 391.120166 
L 198.931308 398.356628 
L 197.940313 399.821247 
L 192.852765 408.522327 
L 189.999736 414.101379 
L 188.316901 417.223407 
L 184.739125 425.924488 
L 182.242939 434.625568 
L 182.125932 443.326649 
L 189.999736 450.997258 
z
" clip-path="url(#p83a1bf0c55)" style="fill: none; stroke: #21918c; stroke-width: 1.5"/>
   </g>
   <g id="PathCollection_8">
    <path d="M 216.794453 427.121481 
L 223.255412 425.924488 
L 225.726026 425.478826 
L 234.657599 421.831058 
L 243.589171 417.503983 
L 244.045172 417.223407 
L 252.520744 412.162189 
L 258.095106 408.522327 
L 261.452317 406.378544 
L 270.383889 400.16125 
L 270.826866 399.821247 
L 279.315462 393.40895 
L 282.169831 391.120166 
L 288.247034 386.288325 
L 292.867002 382.419086 
L 297.178607 378.811748 
L 303.002801 373.718005 
L 306.11018 370.982658 
L 312.643036 365.016925 
L 315.041752 362.79555 
L 321.837979 356.315844 
L 323.973325 354.235604 
L 330.624678 347.614764 
L 332.904898 345.27795 
L 339.028664 338.913684 
L 341.83647 335.886495 
L 347.065147 330.212603 
L 350.768043 326.012266 
L 354.739779 321.511523 
L 359.699615 315.591151 
L 362.049029 312.810442 
L 368.631188 304.540907 
L 368.980198 304.109362 
L 375.362188 295.408281 
L 377.562761 292.137708 
L 381.299043 286.707201 
L 386.494333 278.450353 
L 386.782341 278.006121 
L 391.224041 269.30504 
L 394.968438 260.60396 
L 395.425906 258.197103 
L 396.654607 251.902879 
L 395.425906 246.744047 
L 391.789823 243.201799 
L 386.494333 242.004806 
L 380.033375 243.201799 
L 377.562761 243.647461 
L 368.631188 247.295228 
L 359.699615 251.622304 
L 359.243615 251.902879 
L 350.768043 256.964098 
L 345.193681 260.60396 
L 341.83647 262.747743 
L 332.904898 268.965037 
L 332.461921 269.30504 
L 323.973325 275.717337 
L 321.118955 278.006121 
L 315.041752 282.837962 
L 310.421785 286.707201 
L 306.11018 290.314539 
L 300.285986 295.408281 
L 297.178607 298.143628 
L 290.645751 304.109362 
L 288.247034 306.330737 
L 281.450808 312.810442 
L 279.315462 314.890683 
L 272.664109 321.511523 
L 270.383889 323.848337 
L 264.260123 330.212603 
L 261.452317 333.239792 
L 256.22364 338.913684 
L 252.520744 343.114021 
L 248.549008 347.614764 
L 243.589171 353.535136 
L 241.239757 356.315844 
L 234.657599 364.58538 
L 234.308589 365.016925 
L 227.926598 373.718005 
L 225.726026 376.988579 
L 221.989744 382.419086 
L 216.794453 390.675933 
L 216.506445 391.120166 
L 212.064746 399.821247 
L 208.320349 408.522327 
L 207.862881 410.929183 
L 206.634179 417.223407 
L 207.862881 422.38224 
L 211.498963 425.924488 
L 216.794453 427.121481 
z
" clip-path="url(#p83a1bf0c55)" style="fill: none; stroke: #28ae80; stroke-width: 1.5"/>
   </g>
   <g id="PathCollection_9">
    <path d="M 243.589171 400.769042 
L 246.311087 399.821247 
L 252.520744 397.658337 
L 261.452317 393.195742 
L 264.785686 391.120166 
L 270.383889 387.642402 
L 278.099193 382.419086 
L 279.315462 381.590762 
L 288.247034 374.793079 
L 289.554125 373.718005 
L 297.178607 367.393223 
L 299.908758 365.016925 
L 306.11018 359.530378 
L 309.6009 356.315844 
L 315.041752 351.182807 
L 318.704313 347.614764 
L 323.973325 342.314321 
L 327.273012 338.913684 
L 332.904898 332.872298 
L 335.344144 330.212603 
L 341.83647 322.784882 
L 342.940022 321.511523 
L 349.917777 312.810442 
L 350.768043 311.625562 
L 356.129725 304.109362 
L 359.699615 298.655629 
L 361.830173 295.408281 
L 366.410983 286.707201 
L 368.631188 280.657793 
L 369.604091 278.006121 
L 368.631188 270.120349 
L 367.794282 269.30504 
L 359.699615 268.357244 
L 356.9777 269.30504 
L 350.768043 271.46795 
L 341.83647 275.930545 
L 338.5031 278.006121 
L 332.904898 281.483885 
L 325.189593 286.707201 
L 323.973325 287.535525 
L 315.041752 294.333208 
L 313.734661 295.408281 
L 306.11018 301.733064 
L 303.380029 304.109362 
L 297.178607 309.595909 
L 293.687887 312.810442 
L 288.247034 317.94348 
L 284.584474 321.511523 
L 279.315462 326.811966 
L 276.015775 330.212603 
L 270.383889 336.253988 
L 267.944643 338.913684 
L 261.452317 346.341405 
L 260.348764 347.614764 
L 253.37101 356.315844 
L 252.520744 357.500725 
L 247.159062 365.016925 
L 243.589171 370.470658 
L 241.458613 373.718005 
L 236.877804 382.419086 
L 234.657599 388.468494 
L 233.684696 391.120166 
L 234.657599 399.005938 
L 235.494505 399.821247 
L 243.589171 400.769042 
z
" clip-path="url(#p83a1bf0c55)" style="fill: none; stroke: #5ec962; stroke-width: 1.5"/>
   </g>
   <g id="PathCollection_10">
    <path d="M 279.315462 363.080313 
L 288.247034 358.103851 
L 290.652933 356.315844 
L 297.178607 351.216135 
L 301.408313 347.614764 
L 306.11018 343.357668 
L 310.671885 338.913684 
L 315.041752 334.333156 
L 318.738523 330.212603 
L 323.973325 323.855333 
L 325.808696 321.511523 
L 330.916985 312.810442 
L 323.973325 306.045974 
L 315.041752 311.022436 
L 312.635854 312.810442 
L 306.11018 317.910152 
L 301.880474 321.511523 
L 297.178607 325.768619 
L 292.616901 330.212603 
L 288.247034 334.793131 
L 284.550263 338.913684 
L 279.315462 345.270954 
L 277.480091 347.614764 
L 272.371802 356.315844 
L 279.315462 363.080313 
z
" clip-path="url(#p83a1bf0c55)" style="fill: none; stroke: #addc30; stroke-width: 1.5"/>
   </g>
   <g id="PathCollection_11"/>
   <g id="patch_3">
    <path d="M 71.879688 558.398438 
L 71.879688 14.798437 
" style="fill: none; stroke: #000000; stroke-width: 0.8; stroke-linejoin: miter; stroke-linecap: square"/>
   </g>
   <g id="patch_4">
    <path d="M 629.879688 558.398438 
L 629.879688 14.798437 
" style="fill: none; stroke: #000000; stroke-width: 0.8; stroke-linejoin: miter; stroke-linecap: square"/>
   </g>
   <g id="patch_5">
    <path d="M 71.879688 558.398438 
L 629.879688 558.398438 
" style="fill: none; stroke: #000000; stroke-width: 0.8; stroke-linejoin: miter; stroke-linecap: square"/>
   </g>
   <g id="patch_6">
    <path d="M 71.879688 14.798438 
L 629.879688 14.798438 
" style="fill: none; stroke: #000000; stroke-width: 0.8; stroke-linejoin: miter; stroke-linecap: square"/>
   </g>
   <g id="legend_1">
    <g id="patch_7">
     <path d="M 439.309375 108.189063 
L 612.379688 108.189063 
Q 617.379688 108.189063 617.379688 103.189063 
L 617.379688 32.298438 
Q 617.379688 27.298438 612.379688 27.298438 
L 439.309375 27.298438 
Q 434.309375 27.298438 434.309375 32.298438 
L 434.309375 103.189063 
Q 434.309375 108.189063 439.309375 108.189063 
z
" style="fill: #ffffff; opacity: 0.8; stroke: #cccccc; stroke-linejoin: miter"/>
    </g>
    <g id="PathCollection_12">
     <g>
      <use xlink:href="#m6dabaaf2e0" x="469.309375" y="49.732031" style="fill: #0000ff; stroke: #0000ff; stroke-width: 1.5"/>
     </g>
    </g>
    <g id="text_15">
     <!-- SGLD -->
     <g transform="translate(514.309375 56.294531)scale(0.25 -0.25)">
      <defs>
       <path id="DejaVuSans-53" d="M 3425 4513 
L 3425 3897 
Q 3066 4069 2747 4153 
Q 2428 4238 2131 4238 
Q 1616 4238 1336 4038 
Q 1056 3838 1056 3469 
Q 1056 3159 1242 3001 
Q 1428 2844 1947 2747 
L 2328 2669 
Q 3034 2534 3370 2195 
Q 3706 1856 3706 1288 
Q 3706 609 3251 259 
Q 2797 -91 1919 -91 
Q 1588 -91 1214 -16 
Q 841 59 441 206 
L 441 856 
Q 825 641 1194 531 
Q 1563 422 1919 422 
Q 2459 422 2753 634 
Q 3047 847 3047 1241 
Q 3047 1584 2836 1778 
Q 2625 1972 2144 2069 
L 1759 2144 
Q 1053 2284 737 2584 
Q 422 2884 422 3419 
Q 422 4038 858 4394 
Q 1294 4750 2059 4750 
Q 2388 4750 2728 4690 
Q 3069 4631 3425 4513 
z
" transform="scale(0.015625)"/>
       <path id="DejaVuSans-47" d="M 3809 666 
L 3809 1919 
L 2778 1919 
L 2778 2438 
L 4434 2438 
L 4434 434 
Q 4069 175 3628 42 
Q 3188 -91 2688 -91 
Q 1594 -91 976 548 
Q 359 1188 359 2328 
Q 359 3472 976 4111 
Q 1594 4750 2688 4750 
Q 3144 4750 3555 4637 
Q 3966 4525 4313 4306 
L 4313 3634 
Q 3963 3931 3569 4081 
Q 3175 4231 2741 4231 
Q 1884 4231 1454 3753 
Q 1025 3275 1025 2328 
Q 1025 1384 1454 906 
Q 1884 428 2741 428 
Q 3075 428 3337 486 
Q 3600 544 3809 666 
z
" transform="scale(0.015625)"/>
       <path id="DejaVuSans-4c" d="M 628 4666 
L 1259 4666 
L 1259 531 
L 3531 531 
L 3531 0 
L 628 0 
L 628 4666 
z
" transform="scale(0.015625)"/>
       <path id="DejaVuSans-44" d="M 1259 4147 
L 1259 519 
L 2022 519 
Q 2988 519 3436 956 
Q 3884 1394 3884 2338 
Q 3884 3275 3436 3711 
Q 2988 4147 2022 4147 
L 1259 4147 
z
M 628 4666 
L 1925 4666 
Q 3281 4666 3915 4102 
Q 4550 3538 4550 2338 
Q 4550 1131 3912 565 
Q 3275 0 1925 0 
L 628 0 
L 628 4666 
z
" transform="scale(0.015625)"/>
      </defs>
      <use xlink:href="#DejaVuSans-53"/>
      <use xlink:href="#DejaVuSans-47" x="63.476562"/>
      <use xlink:href="#DejaVuSans-4c" x="140.966797"/>
      <use xlink:href="#DejaVuSans-44" x="196.679688"/>
     </g>
    </g>
    <g id="PathCollection_13">
     <g>
      <use xlink:href="#m8ac8c4d7c2" x="469.309375" y="86.427344" style="fill: #ff0000; stroke: #ff0000"/>
     </g>
    </g>
    <g id="text_16">
     <!-- SGHMC -->
     <g transform="translate(514.309375 92.989844)scale(0.25 -0.25)">
      <defs>
       <path id="DejaVuSans-48" d="M 628 4666 
L 1259 4666 
L 1259 2753 
L 3553 2753 
L 3553 4666 
L 4184 4666 
L 4184 0 
L 3553 0 
L 3553 2222 
L 1259 2222 
L 1259 0 
L 628 0 
L 628 4666 
z
" transform="scale(0.015625)"/>
       <path id="DejaVuSans-4d" d="M 628 4666 
L 1569 4666 
L 2759 1491 
L 3956 4666 
L 4897 4666 
L 4897 0 
L 4281 0 
L 4281 4097 
L 3078 897 
L 2444 897 
L 1241 4097 
L 1241 0 
L 628 0 
L 628 4666 
z
" transform="scale(0.015625)"/>
       <path id="DejaVuSans-43" d="M 4122 4306 
L 4122 3641 
Q 3803 3938 3442 4084 
Q 3081 4231 2675 4231 
Q 1875 4231 1450 3742 
Q 1025 3253 1025 2328 
Q 1025 1406 1450 917 
Q 1875 428 2675 428 
Q 3081 428 3442 575 
Q 3803 722 4122 1019 
L 4122 359 
Q 3791 134 3420 21 
Q 3050 -91 2638 -91 
Q 1578 -91 968 557 
Q 359 1206 359 2328 
Q 359 3453 968 4101 
Q 1578 4750 2638 4750 
Q 3056 4750 3426 4639 
Q 3797 4528 4122 4306 
z
" transform="scale(0.015625)"/>
      </defs>
      <use xlink:href="#DejaVuSans-53"/>
      <use xlink:href="#DejaVuSans-47" x="63.476562"/>
      <use xlink:href="#DejaVuSans-48" x="140.966797"/>
      <use xlink:href="#DejaVuSans-4d" x="216.162109"/>
      <use xlink:href="#DejaVuSans-43" x="302.441406"/>
     </g>
    </g>
   </g>
  </g>
 </g>
 <defs>
  <clipPath id="p83a1bf0c55">
   <rect x="71.879688" y="14.798438" width="558" height="543.6"/>
  </clipPath>
 </defs>
</svg>
